<svg id="Calque_2" data-name="Calque 2" xmlns="http://www.w3.org/2000/svg" viewBox="0 0 245.49 283.46"><defs><style>.cls-1{fill:#f08a7f;}.cls-2{fill:#346281;}.cls-3{fill:#ffdc85;}.cls-4{fill:#5f7fbf;}.cls-5{fill:#79bcbe;}</style></defs><title>logo-poppy-project</title><g id="Calque_3_-_copie" data-name="Calque 3 - copie"><polygon class="cls-1" points="61.37 35.43 0 70.87 81.83 70.87 61.37 35.43"/></g><g id="Calque_3_-_copie_2" data-name="Calque 3 - copie 2"><polygon class="cls-2" points="122.75 70.87 122.75 70.87 122.75 70.87 122.75 70.87"/><polygon class="cls-2" points="92.06 88.58 122.74 141.74 122.74 70.87 92.06 88.58"/><polygon class="cls-2" points="122.75 47.24 163.66 70.86 122.74 0 61.37 35.43 81.83 70.87 122.75 47.24"/></g><g id="Calque_3_-_copie_3" data-name="Calque 3 - copie 3"><polygon class="cls-3" points="184.11 106.3 122.75 70.87 122.74 70.87 122.74 141.74 184.12 141.74 184.12 106.3 184.11 106.3"/><polygon class="cls-3" points="204.57 141.74 204.57 141.74 204.57 141.74 204.57 141.74"/></g><g id="Calque_3_-_copie_4" data-name="Calque 3 - copie 4"><polygon class="cls-3" points="40.92 141.73 40.92 94.49 81.83 70.87 81.83 70.87 0 70.87 0 141.73 40.91 141.73 40.92 141.73"/></g><g id="Calque_3_-_copie_5" data-name="Calque 3 - copie 5"><polygon class="cls-1" points="184.12 106.3 184.12 106.3 184.12 106.3 184.12 106.3"/><polygon class="cls-1" points="163.66 70.87 204.57 94.49 204.57 141.73 204.57 141.73 245.49 141.73 245.49 70.87 163.66 70.87"/></g><g id="Calque_3_-_copie_6" data-name="Calque 3 - copie 6"><polygon class="cls-3" points="163.66 70.87 245.49 70.87 122.74 0 163.66 70.87 163.66 70.87"/></g><g id="Calque_3_-_copie_7" data-name="Calque 3 - copie 7"><polygon class="cls-4" points="122.75 141.74 92.06 88.58 61.37 106.3 61.37 141.74 122.75 141.74"/></g><g id="Calque_3_-_copie_9" data-name="Calque 3 - copie 9"><polygon class="cls-5" points="122.75 141.74 61.37 141.74 61.37 177.17 122.74 212.6 122.75 141.74"/><polygon class="cls-5" points="61.37 200.79 61.37 248.03 122.74 283.46 122.74 236.22 61.37 200.79"/><polygon class="cls-5" points="40.91 165.59 40.92 165.59 40.92 141.73 40.92 141.73 0 212.6 40.91 236.22 40.91 165.59"/></g><g id="Calque_3_-_copie_10" data-name="Calque 3 - copie 10"><polygon class="cls-1" points="122.75 236.22 122.74 236.22 122.74 283.46 184.12 248.03 163.66 212.6 122.75 236.22"/><polygon class="cls-1" points="153.43 194.88 122.74 141.73 122.74 212.6 122.75 212.6 153.43 194.88"/></g><g id="Calque_3_-_copie_11" data-name="Calque 3 - copie 11"><polygon class="cls-4" points="184.12 141.73 122.75 141.73 153.43 194.88 184.12 177.17 184.12 141.73"/><polygon class="cls-4" points="204.57 141.74 204.57 188.98 163.66 212.6 184.12 248.03 245.49 212.6 204.57 141.74"/></g><g id="Calque_3_-_copie_12" data-name="Calque 3 - copie 12"><polygon class="cls-1" points="0 141.73 0 212.6 40.91 141.73 0 141.73"/></g><g id="Calque_3_-_copie_13" data-name="Calque 3 - copie 13"><polygon class="cls-5" points="204.57 141.73 204.57 141.74 245.49 212.6 245.49 141.73 204.57 141.73"/></g></svg>